<svg width="180" height="240" viewBox="-56 -10 120 200" xmlns="http://www.w3.org/2000/svg">
  <defs>
    <filter id="s" x="-20%" y="-20%" width="150%" height="150%">
      <feDropShadow dx="2" dy="3" stdDeviation="4" flood-color="#000" flood-opacity="0.13"/>
    </filter>
  </defs>
  <g filter="url(#s)">
    <rect x="-46" y="0" width="92" height="118" rx="6" fill="#fff" stroke="#111" stroke-width="4"/>
    <path d="M-46 118 L-36 108 L-26 118 L-16 108 L-6 118 L4 108 L14 118 L24 108 L34 118 L44 108 L46 118" fill="none" stroke="#111" stroke-width="3.5" stroke-linejoin="round"/>
    <rect x="-30" y="16" width="60" height="6" rx="3" fill="#eee" stroke="#111" stroke-width="1.5"/>
    <rect x="-30" y="28" width="42" height="5" rx="2.5" fill="#eee" stroke="#111" stroke-width="1.5"/>
    <rect x="-30" y="40" width="50" height="5" rx="2.5" fill="#eee" stroke="#111" stroke-width="1.5"/>
    <rect x="-30" y="52" width="36" height="5" rx="2.5" fill="#eee" stroke="#111" stroke-width="1.5"/>
    <line x1="-30" y1="66" x2="30" y2="66" stroke="#111" stroke-width="1.5" stroke-dasharray="4,3"/>
    <text x="0" y="86" text-anchor="middle" font-family="monospace" font-size="11" font-weight="700" fill="#111">GH₵ 85.00</text>
    <text x="0" y="100" text-anchor="middle" font-family="monospace" font-size="9" fill="#555">TOTAL</text>
  </g>
</svg>
