<svg width="240" height="220" viewBox="-80 -70 220 200" xmlns="http://www.w3.org/2000/svg">
  <defs>
    <filter id="s" x="-20%" y="-20%" width="150%" height="150%">
      <feDropShadow dx="2" dy="3" stdDeviation="4" flood-color="#000" flood-opacity="0.13"/>
    </filter>
  </defs>
  <g filter="url(#s)">
    <ellipse cx="10" cy="0" rx="54" ry="46" fill="#FFB3C6" stroke="#111" stroke-width="4"/>
    <ellipse cx="58" cy="6" rx="17" ry="14" fill="#FF8FAB" stroke="#111" stroke-width="3"/>
    <circle cx="52" cy="5" r="3.5" fill="#111"/>
    <circle cx="63" cy="5" r="3.5" fill="#111"/>
    <ellipse cx="-28" cy="-32" rx="11" ry="15" fill="#FFB3C6" stroke="#111" stroke-width="3"/>
    <ellipse cx="-28" cy="-30" rx="6" ry="9" fill="#FF8FAB"/>
    <rect x="-4" y="-46" width="22" height="5" rx="2.5" fill="#111"/>
    <rect x="-32" y="38" width="14" height="22" rx="5" fill="#FFB3C6" stroke="#111" stroke-width="3"/>
    <rect x="-11" y="40" width="14" height="22" rx="5" fill="#FFB3C6" stroke="#111" stroke-width="3"/>
    <rect x="14" y="40" width="14" height="22" rx="5" fill="#FFB3C6" stroke="#111" stroke-width="3"/>
    <rect x="37" y="38" width="14" height="22" rx="5" fill="#FFB3C6" stroke="#111" stroke-width="3"/>
    <path d="M-44 -10 Q-62 -4 -58 12 Q-54 24 -46 16" fill="none" stroke="#111" stroke-width="3" stroke-linecap="round"/>
  </g>
</svg>
